<svg id="Layer_1" data-name="Layer 1" xmlns="http://www.w3.org/2000/svg" viewBox="0 0 1500 225.06"><defs><style>.cls-1{fill:#f07e16;}.cls-2{fill:#d11635;}.cls-3{fill:#c7d302;}.cls-4{fill:#009fe3;}.cls-5{fill:#696969;}.cls-6{fill:#df2815;}</style></defs><path class="cls-1" d="M737.87,103.75c-1.57,30.24-51.4,54.54-112.76,54.54a205.73,205.73,0,0,1-56.44-7.57v23.72c16.62,6.77,40.93,31.26,61.51,31.26,62.35,0,107.83-56.08,107.83-99.9C738,105.11,737.88,104.43,737.87,103.75Z"/><path class="cls-2" d="M681.56,37.15C665,30.38,646.07,11.64,625.48,11.64c-56.56,0-103.63,44.08-111.84,82.22,8.21-26.92,54.91-47.57,111.47-47.57a205.45,205.45,0,0,1,56.45,7.55Z"/><path class="cls-3" d="M667.58,123.87c0-24.83-19.09-45-42.65-45h0a41.93,41.93,0,0,0-34.66,18.81A42,42,0,0,0,555.6,78.9C532.05,78.9,513,99,513,123.86h0a47.7,47.7,0,0,0,1.14,10.22c5.93,38.79,46.84,79.74,76.17,91,29.32-11.23,70.25-52.18,76.15-91A47.48,47.48,0,0,0,667.58,123.87Z"/><path class="cls-4" d="M737.29,31.15C737.29,14,724.07,0,707.75,0h0a29.07,29.07,0,0,0-24,13,29,29,0,0,0-24-13c-16.32,0-29.55,13.94-29.55,31.14h0a32.89,32.89,0,0,0,.8,7.08c4.1,26.87,32.44,55.23,52.75,63,20.31-7.79,48.66-36.14,52.76-63A32.89,32.89,0,0,0,737.29,31.15Z"/><path class="cls-5" d="M43.65,165.1a35.4,35.4,0,0,1-9.2-1.12A33.2,33.2,0,0,1,27,161a27.11,27.11,0,0,1-5.85-4.34,40.19,40.19,0,0,1-4.51-5.25h-1c.17,2,.34,3.82.51,5.59.12,1.49.23,3,.35,4.6s.17,2.83.17,3.74v40.33H1V69H13.73L16,81.69h.69a39.76,39.76,0,0,1,4.47-5.63,26,26,0,0,1,5.81-4.56,31.76,31.76,0,0,1,7.43-3.1,34.47,34.47,0,0,1,9.29-1.16,34.17,34.17,0,0,1,14.7,3.1,30,30,0,0,1,11.31,9.24,45.2,45.2,0,0,1,7.27,15.26A78,78,0,0,1,79.51,116a78.84,78.84,0,0,1-2.58,21.28,45.69,45.69,0,0,1-7.27,15.35A30.38,30.38,0,0,1,58.35,162,33.89,33.89,0,0,1,43.65,165.1Zm-3-84.87a27.48,27.48,0,0,0-11,2,17,17,0,0,0-7.31,6,28.43,28.43,0,0,0-4.13,10.06,73.89,73.89,0,0,0-1.5,14.19V116a92.15,92.15,0,0,0,1.16,15.43,32,32,0,0,0,4,11.35,18.3,18.3,0,0,0,7.43,7,25.56,25.56,0,0,0,11.61,2.36q11.61,0,17.07-9.37t5.46-26.92q0-17.88-5.46-26.74T40.64,80.23Z"/><path class="cls-5" d="M90.08,69h16.25l18.49,52.71q1.2,3.43,2.45,7.23c.83,2.52,1.61,5,2.32,7.56s1.34,5,1.85,7.31a64.16,64.16,0,0,1,1.12,6.54h.52q.42-2.16,1.37-5.85c.63-2.47,1.34-5.09,2.11-7.87s1.58-5.52,2.41-8.21,1.56-5,2.19-6.88L158.27,69h16.17L137.12,175.67a102,102,0,0,1-5.2,12.51,38.8,38.8,0,0,1-6.5,9.42,25.79,25.79,0,0,1-8.68,6,30.49,30.49,0,0,1-11.87,2.1,55.75,55.75,0,0,1-7.74-.47c-2.17-.32-4-.65-5.59-1V191.75a37.72,37.72,0,0,0,4.56.73,53.32,53.32,0,0,0,5.76.3,23.24,23.24,0,0,0,7.14-1,15.65,15.65,0,0,0,5.25-2.89,17.47,17.47,0,0,0,3.82-4.64A39.92,39.92,0,0,0,121,178l4.9-13.75Z"/><path class="cls-4" d="M218.81,152.28c1,0,2.19-.05,3.48-.17s2.54-.26,3.74-.43,2.31-.37,3.31-.6,1.76-.43,2.28-.6v11.86a22,22,0,0,1-2.84,1q-1.72.51-3.78.9c-1.38.26-2.81.46-4.3.6s-2.95.22-4.39.22a34,34,0,0,1-9.89-1.38,18.29,18.29,0,0,1-7.86-4.73,22.85,22.85,0,0,1-5.21-9.07,46.54,46.54,0,0,1-1.89-14.4V80.74H178.13v-7l13.33-6.71,6.71-19.78h9V69h23.73V80.74H207.2v54.78q0,8.34,2.71,12.55T218.81,152.28Z"/><path class="cls-4" d="M287.25,165.1A45.52,45.52,0,0,1,270,161.91a37.06,37.06,0,0,1-13.46-9.28,42.31,42.31,0,0,1-8.73-15.14,63.56,63.56,0,0,1-3.09-20.63A70.63,70.63,0,0,1,247.53,96a46.31,46.31,0,0,1,8-15.6,34.28,34.28,0,0,1,12.34-9.76A39.52,39.52,0,0,1,299,70.29a32.6,32.6,0,0,1,11.53,8.6,38.84,38.84,0,0,1,7.26,13.33,55.47,55.47,0,0,1,2.54,17.24v9.72H260.85q.43,16.59,7,24.42t19.56,7.82a70.58,70.58,0,0,0,8.13-.43,62.81,62.81,0,0,0,7.22-1.24,53.37,53.37,0,0,0,6.75-2.07q3.27-1.25,6.62-2.79v13.93c-2.29,1.09-4.54,2-6.75,2.84a53.47,53.47,0,0,1-6.79,2,57,57,0,0,1-7.22,1.12Q291.65,165.09,287.25,165.1Zm-3.87-84.87q-9.79,0-15.52,6.7t-6.66,19.52h42.3a45.7,45.7,0,0,0-1.16-10.7,23.38,23.38,0,0,0-3.61-8.3,16.72,16.72,0,0,0-6.23-5.33A20.21,20.21,0,0,0,283.38,80.23Z"/><path class="cls-4" d="M400.67,137.49a27.4,27.4,0,0,1-2.49,12,23.32,23.32,0,0,1-7.18,8.64,32.41,32.41,0,0,1-11.31,5.21,59.57,59.57,0,0,1-14.88,1.72,74.72,74.72,0,0,1-16.08-1.51A41.77,41.77,0,0,1,337,159.16V144.89q2.67,1.38,5.94,2.71a66.07,66.07,0,0,0,6.88,2.36,67.52,67.52,0,0,0,7.43,1.68,45.72,45.72,0,0,0,7.61.64,41.16,41.16,0,0,0,9.51-.94,18.32,18.32,0,0,0,6.36-2.71,10.56,10.56,0,0,0,3.57-4.3,13.9,13.9,0,0,0,1.11-5.63,12.74,12.74,0,0,0-.86-4.82,12.07,12.07,0,0,0-3.13-4.25,30.79,30.79,0,0,0-6.24-4.26c-2.63-1.43-6-3-10.14-4.82s-7.84-3.52-11.14-5.24a38.32,38.32,0,0,1-8.38-5.76,22,22,0,0,1-5.29-7.35,24.46,24.46,0,0,1-1.85-9.94,23.5,23.5,0,0,1,2.36-10.7,22,22,0,0,1,6.67-7.87,30.38,30.38,0,0,1,10.32-4.81,51.1,51.1,0,0,1,13.41-1.64,60.08,60.08,0,0,1,15.26,1.81,74.53,74.53,0,0,1,13.12,4.73l-5.42,12.64a106.31,106.31,0,0,0-11.48-4.35,40,40,0,0,0-12-1.84q-8.76,0-13,2.88a9.34,9.34,0,0,0-4.21,8.21,12.83,12.83,0,0,0,1,5.24,11.64,11.64,0,0,0,3.39,4.22,35.12,35.12,0,0,0,6.45,4q4.05,2,10.06,4.51,6.19,2.58,11.05,5.16a38.23,38.23,0,0,1,8.3,5.8,22.14,22.14,0,0,1,5.24,7.36A24.42,24.42,0,0,1,400.67,137.49Z"/><path class="cls-4" d="M452.18,152.28c1,0,2.19-.05,3.48-.17s2.54-.26,3.74-.43,2.31-.37,3.31-.6,1.76-.43,2.28-.6v11.86a22,22,0,0,1-2.84,1q-1.72.51-3.78.9c-1.38.26-2.81.46-4.3.6s-2.95.22-4.39.22a34,34,0,0,1-9.89-1.38,18.29,18.29,0,0,1-7.86-4.73,23,23,0,0,1-5.21-9.07,46.54,46.54,0,0,1-1.89-14.4V80.74H411.51v-7l13.32-6.71,6.71-19.78h9V69H464.3V80.74H440.57v54.78q0,8.34,2.71,12.55T452.18,152.28Z"/><path class="cls-6" d="M822.11,165.1a57.9,57.9,0,0,1-19-3,40.05,40.05,0,0,1-15-9.08,41,41,0,0,1-9.76-15.3A61.52,61.52,0,0,1,774.9,116a69.39,69.39,0,0,1,3.18-22.1A44.09,44.09,0,0,1,787,78.12a36.32,36.32,0,0,1,13.76-9.5,48.09,48.09,0,0,1,17.84-3.18,48.9,48.9,0,0,1,17.24,2.88,34.67,34.67,0,0,1,13.07,8.47,37.68,37.68,0,0,1,8.26,13.71A55.59,55.59,0,0,1,860,109.12v12.72H801.38a32.51,32.51,0,0,0,1.76,9.94,21.38,21.38,0,0,0,4.48,7.48,19.35,19.35,0,0,0,7,4.68,24.93,24.93,0,0,0,9.33,1.64,68.31,68.31,0,0,0,8.3-.48,57.12,57.12,0,0,0,7.61-1.42,61.54,61.54,0,0,0,7.31-2.36q3.61-1.42,7.39-3.31V158.3a54.5,54.5,0,0,1-6.92,3.06,60.64,60.64,0,0,1-7.35,2.1,64.8,64.8,0,0,1-8.34,1.25Q827.44,165.1,822.11,165.1Zm-3.36-81A15.17,15.17,0,0,0,807.19,89q-4.61,4.89-5.29,15.39h33.45a32.37,32.37,0,0,0-1.12-8.08,18.75,18.75,0,0,0-3.1-6.41A14.55,14.55,0,0,0,826,85.64,16,16,0,0,0,818.75,84.1Z"/><path class="cls-1" d="M964.76,163.38H938.53V107.23q0-10.41-3.09-15.61t-9.72-5.2a15.5,15.5,0,0,0-8.3,2.06,14.5,14.5,0,0,0-5.29,6.11,33.93,33.93,0,0,0-2.83,10,94.64,94.64,0,0,0-.86,13.59v45.23H882.21V67.24h20l3.52,12.3h1.46a25.44,25.44,0,0,1,4.95-6.36,27,27,0,0,1,6.32-4.39,30.28,30.28,0,0,1,7.31-2.54,38,38,0,0,1,7.82-.81q9.89,0,16.81,3.39a23.16,23.16,0,0,1,10.62,10.71h2.15a24.9,24.9,0,0,1,5-6.36,27.34,27.34,0,0,1,6.45-4.39,31.73,31.73,0,0,1,7.44-2.54,38.63,38.63,0,0,1,7.86-.81q15.48,0,23.35,8.38t7.87,26.87v62.69H994.85V107.23q0-10.41-3.09-15.61T982,86.42q-9.37,0-13.33,7.44t-4,21.28Z"/><path class="cls-3" d="M1099.33,65.44a28.78,28.78,0,0,1,13.5,3.18,29.24,29.24,0,0,1,10.49,9.46,48.83,48.83,0,0,1,6.84,15.56,84.85,84.85,0,0,1,2.45,21.5,86.14,86.14,0,0,1-2.45,21.71,47.7,47.7,0,0,1-6.93,15.61,29.58,29.58,0,0,1-10.74,9.45,30.22,30.22,0,0,1-13.85,3.19,32.08,32.08,0,0,1-8.55-1,27,27,0,0,1-6.67-2.75,25.1,25.1,0,0,1-5.11-3.91,42,42,0,0,1-4-4.6h-1.81l-4.38,10.58h-20V29.58h26.23V60.71q0,2.84-.17,6.14c-.12,2.21-.23,4.26-.35,6.15l-.51,6.71h1a36.14,36.14,0,0,1,4.12-5.59,25.61,25.61,0,0,1,5.38-4.51,26.75,26.75,0,0,1,6.92-3.06A31.16,31.16,0,0,1,1099.33,65.44Zm-8.86,21A16,16,0,0,0,1083,88a12.35,12.35,0,0,0-4.94,4.77,23.77,23.77,0,0,0-2.75,8,77.33,77.33,0,0,0-1,11.31V115a84.46,84.46,0,0,0,.81,12.38,29.46,29.46,0,0,0,2.71,9.07,13.6,13.6,0,0,0,5,5.55,14.85,14.85,0,0,0,7.78,1.89q7.83,0,11.48-7.44t3.66-21.63q0-14.19-3.66-21.28A12.21,12.21,0,0,0,1090.47,86.42Z"/><path class="cls-3" d="M1205.27,65.44c.68,0,1.44,0,2.27,0s1.64.09,2.41.17,1.49.17,2.15.26a8.63,8.63,0,0,1,1.51.3V90.8c-.46-.11-1.09-.23-1.89-.34s-1.65-.22-2.54-.3-1.76-.15-2.62-.17-1.58,0-2.15,0a32,32,0,0,0-9.33,1.29,18.1,18.1,0,0,0-7.31,4.17A19,19,0,0,0,1183,103a34.22,34.22,0,0,0-1.68,11.48v48.93h-26.22V67.24H1175l3.87,14.45h1.29a47.71,47.71,0,0,1,4.47-6.71,26.73,26.73,0,0,1,5.37-5.12,23.64,23.64,0,0,1,6.71-3.26A28.69,28.69,0,0,1,1205.27,65.44Z"/><path class="cls-4" d="M1285.66,163.38l-5.07-13.07h-.77a54.63,54.63,0,0,1-5.68,6.66,27,27,0,0,1-6.19,4.6,27.75,27.75,0,0,1-7.52,2.67,48.61,48.61,0,0,1-9.68.86,30.94,30.94,0,0,1-10.83-1.85,23.23,23.23,0,0,1-8.64-5.59,26,26,0,0,1-5.72-9.46,39.83,39.83,0,0,1-2.06-13.54q0-15.31,9.8-22.58t29.32-8l15.31-.51V96.31q0-5.94-3.44-8.77t-9.63-2.84a41.17,41.17,0,0,0-12.09,1.8A75,75,0,0,0,1241,91.32L1232.44,74a67.74,67.74,0,0,1,16-6.36,71.53,71.53,0,0,1,18.4-2.33q18,0,27.56,8.43T1304,99.32v64.06Zm-7.73-44.55-8.69.35a31.53,31.53,0,0,0-8.86,1.37,15.92,15.92,0,0,0-5.8,3.23,11.86,11.86,0,0,0-3.18,4.81,18.65,18.65,0,0,0-1,6.24q0,6,2.92,8.55a11.28,11.28,0,0,0,7.66,2.54,17.79,17.79,0,0,0,6.7-1.25,14.8,14.8,0,0,0,5.38-3.69,17.44,17.44,0,0,0,3.57-6,24.11,24.11,0,0,0,1.29-8.21Z"/><path class="cls-4" d="M1371,165.1a57.35,57.35,0,0,1-18.61-2.84,35.89,35.89,0,0,1-14.19-8.82,39.08,39.08,0,0,1-9-15.3q-3.14-9.33-3.14-22.32,0-14.35,3.23-24a38.74,38.74,0,0,1,9.11-15.52,33.45,33.45,0,0,1,14.19-8.34A64,64,0,0,1,1371,65.44a61.31,61.31,0,0,1,14.71,1.8,65,65,0,0,1,13.76,5.08l-7.57,19.94a97.61,97.61,0,0,0-10.92-4.08,34.41,34.41,0,0,0-10-1.59q-9.54,0-13.84,7.27t-4.3,21.79q0,14.44,4.3,21.33t13.5,6.88a44.84,44.84,0,0,0,13.59-1.94,100.31,100.31,0,0,0,12.46-4.94v21.84q-3.18,1.55-6.19,2.75a48.68,48.68,0,0,1-6.06,2,50.44,50.44,0,0,1-6.36,1.16A60.8,60.8,0,0,1,1371,165.1Z"/><path class="cls-4" d="M1461.08,165.1a57.83,57.83,0,0,1-19-3,40.17,40.17,0,0,1-15-9.08,41.13,41.13,0,0,1-9.76-15.3,61.52,61.52,0,0,1-3.48-21.71,69.39,69.39,0,0,1,3.18-22.1,44.09,44.09,0,0,1,8.9-15.78,36.4,36.4,0,0,1,13.76-9.5,48.13,48.13,0,0,1,17.84-3.18,48.86,48.86,0,0,1,17.24,2.88,34.67,34.67,0,0,1,13.07,8.47,37.41,37.41,0,0,1,8.26,13.71,55.59,55.59,0,0,1,2.88,18.62v12.72h-58.64a32.22,32.22,0,0,0,1.76,9.94,21.21,21.21,0,0,0,4.47,7.48,19.3,19.3,0,0,0,7,4.68,24.93,24.93,0,0,0,9.33,1.64,68.14,68.14,0,0,0,8.29-.48,56.83,56.83,0,0,0,7.61-1.42,61,61,0,0,0,7.31-2.36c2.41-.95,4.87-2,7.4-3.31V158.3a54.62,54.62,0,0,1-6.93,3.06,60.64,60.64,0,0,1-7.35,2.1,64.8,64.8,0,0,1-8.34,1.25Q1466.41,165.1,1461.08,165.1Zm-3.35-81a15.19,15.19,0,0,0-11.57,4.9q-4.61,4.89-5.29,15.39h33.45a32.37,32.37,0,0,0-1.12-8.08,18.74,18.74,0,0,0-3.09-6.41,14.73,14.73,0,0,0-5.16-4.26A16,16,0,0,0,1457.73,84.1Z"/></svg>
