<svg id="Layer_1" data-name="Layer 1" xmlns="http://www.w3.org/2000/svg" viewBox="0 0 1500 1500"><defs><style>.cls-1{fill:#f07e16;}.cls-2{fill:#d11635;}.cls-3{fill:#009fe3;}.cls-4{fill:#c7d302;}</style></defs><path class="cls-1" d="M1498,691.55c-10.44,201.31-342.06,363-750.46,363-137.14,0-265.17-18.57-375.71-50.39v157.92c110.62,45,238.7,71.25,375.71,71.25,415,0,751.42-236.48,751.42-528.14C1499,700.62,1498.17,696.08,1498,691.55Z"/><path class="cls-2" d="M1123.29,248.26c-110.46-45.07-238.66-71.17-375.71-71.17-376.46,0-687.34,194.8-742,448.66,54.65-179.17,365.53-316.66,742-316.66,137,0,265.25,18.39,375.71,50.26Z"/><path class="cls-3" d="M1030.2,825.48c0-165.29-127.05-299.3-283.83-299.33h-.09c-91.56,0-177.49,46.64-230.68,125.22-53.2-78.58-139.12-125.22-230.69-125.22C128.13,526.13,1,660.1,1,825.39v.09a314.2,314.2,0,0,0,7.64,68C48.09,1151.7,320.4,1424.22,515.6,1499c195.16-74.78,467.55-347.3,506.87-605.43A312.88,312.88,0,0,0,1030.2,825.48Z"/><path class="cls-4" d="M1494.2,208.34c0-114.49-88-207.32-196.58-207.34h-.08c-65.92,0-124.11,34.33-159.81,86.79C1100.89,33.36,1041.39,1,978,1,869.38,1,781.33,93.77,781.31,208.25v.09a217.72,217.72,0,0,0,5.3,47.09c27.3,178.87,215.95,367.64,351.12,419.4C1272.91,623,1461.6,434.3,1488.9,255.48A218.54,218.54,0,0,0,1494.2,208.34Z"/></svg>
