<svg id="Layer_1" data-name="Layer 1" xmlns="http://www.w3.org/2000/svg" viewBox="0 0 1500 1500"><defs><style>.cls-1{fill:#d11635;}.cls-2{fill:#f07e16;}.cls-3{fill:#c7d302;}.cls-4{fill:#009fe3;}</style></defs><path class="cls-1" d="M1498,694.56c-10.44,191-342.06,344.32-750.46,344.32-137.14,0-265.17-17.62-375.71-47.8v149.78c110.62,42.71,238.7,67.59,375.71,67.59,415,0,751.42-224.3,751.42-500.95C1499,703.16,1498.17,698.86,1498,694.56Z"/><path class="cls-2" d="M1123.29,274.1c-110.46-42.75-238.66-67.5-375.71-67.5-376.46,0-687.34,184.76-742,425.55,54.65-169.94,365.53-300.36,742-300.36,137,0,265.25,17.45,375.71,47.68Z"/><path class="cls-3" d="M1030.2,821.59c0-156.77-127.05-283.89-283.83-283.91h-.09A283.36,283.36,0,0,0,515.6,656.45,283.43,283.43,0,0,0,284.91,537.68C128.13,537.66,1,664.73,1,821.51v.08a283.38,283.38,0,0,0,7.64,64.5C48.09,1131,320.4,1389.5,515.6,1460.43,710.76,1389.5,983.15,1131,1022.47,886.17A282,282,0,0,0,1030.2,821.59Z"/><path class="cls-4" d="M1494.2,236.24c0-108.59-88-196.64-196.58-196.67h-.08c-65.92,0-124.11,32.56-159.81,82.33A196.41,196.41,0,0,0,978,39.57c-108.59,0-196.64,88-196.66,196.58v.09a196.31,196.31,0,0,0,5.3,44.66c27.3,169.66,215.95,348.71,351.12,397.8C1272.91,629.56,1461.6,450.56,1488.9,281A197.09,197.09,0,0,0,1494.2,236.24Z"/></svg>
